# xmcd CD database file
#
# Track frame offsets:
#	182
#	13987
#	33890
#	46322
#	61685
#	75525
#	98275
#	113480
#	140462
#	154480
#	172182
#	185985
#
# Disc length: 2686 seconds
#
# Revision: 0
# Processed by: cddbd v1.4PL0 Copyright (c) Steve Scherf et al.
# Submitted via: CDex 1.40Release
#
DISCID=960a7c0c
DTITLE=Brian Knight - File Under Blues
DYEAR=1900
DGENRE=Blues
TTITLE0=Looking for a woman
TTITLE1=Feel like going home
TTITLE2=Take this hammer
TTITLE3=It hurts me too
TTITLE4=Meet me in the bottom
TTITLE5=Hard Travellin'
TTITLE6=Shake, Rattle 'n Roll 
TTITLE7=Honey Bee
TTITLE8=Kansas City
TTITLE9=Can't Be Satisfied
TTITLE10=How Long
TTITLE11=I Feel So Good
EXTD=ID3G: 0
EXTT0=
EXTT1=
EXTT2=
EXTT3=
EXTT4=
EXTT5=
EXTT6=
EXTT7=
EXTT8=
EXTT9=
EXTT10=
EXTT11=
PLAYORDER=
